<svg xmlns="http://www.w3.org/2000/svg" viewBox="0 0 160 64" role="img">
<defs><linearGradient id="ct540" x1="0" y1="0" x2="0" y2="1">
<stop offset="0" stop-color="#dbd3af"/><stop offset="1" stop-color="#b1aa8a"/></linearGradient><pattern id="cg541" width="4" height="4" patternUnits="userSpaceOnUse">
<rect width="4" height="4" fill="#4a2028"/><circle cx="1" cy="1" r=".6" fill="#6a3038"/><circle cx="3" cy="3" r=".6" fill="#2e1418"/></pattern></defs>
<ellipse cx="80" cy="62" rx="60.480000000000004" ry="4" fill="rgba(0,0,0,.30)"/><rect x="26" y="4" width="108" height="58" rx="3.5" fill="url(#ct540)" stroke="rgba(0,0,0,.55)" stroke-width="1"/><rect x="31" y="9" width="98" height="48" rx="2" fill="url(#cg541)" stroke="rgba(0,0,0,.4)" stroke-width=".6"/><circle cx="55.5" cy="33" r="20.16" fill="rgba(10,10,10,0.44000000000000006)" stroke="rgba(0,0,0,.6)" stroke-width=".8"/><circle cx="55.5" cy="33" r="14.5152" fill="none" stroke="rgba(255,255,255,0.137)" stroke-width="1"/><circle cx="55.5" cy="33" r="6.048" fill="rgba(40,40,42,1)" opacity="0.55" stroke="rgba(255,255,255,.12)" stroke-width=".6"/><circle cx="104.5" cy="33" r="20.16" fill="rgba(10,10,10,0.44000000000000006)" stroke="rgba(0,0,0,.6)" stroke-width=".8"/><circle cx="104.5" cy="33" r="14.5152" fill="none" stroke="rgba(255,255,255,0.137)" stroke-width="1"/><circle cx="104.5" cy="33" r="6.048" fill="rgba(40,40,42,1)" opacity="0.55" stroke="rgba(255,255,255,.12)" stroke-width=".6"/><text x="130" y="58.5" font-family="JetBrains Mono, ui-monospace, Menlo, monospace" font-size="4.2" font-weight="700" letter-spacing="0.5" text-anchor="end" fill="#1c1712" opacity="0.6">2×12</text><path d="M 26 6 L 28 4 L 30 6 L 28 8 Z" fill="#8a8a8a" stroke="#222" stroke-width=".4"/><path d="M 130 6 L 132 4 L 134 6 L 132 8 Z" fill="#8a8a8a" stroke="#222" stroke-width=".4"/><path d="M 26 60 L 28 58 L 30 60 L 28 62 Z" fill="#8a8a8a" stroke="#222" stroke-width=".4"/><path d="M 130 60 L 132 58 L 134 60 L 132 62 Z" fill="#8a8a8a" stroke="#222" stroke-width=".4"/>
</svg>
