<svg xmlns="http://www.w3.org/2000/svg" viewBox="0 0 160 64" role="img">
<defs><radialGradient id="w623" cx=".38" cy=".32" r=".85">
<stop offset="0" stop-color="#c5905c"/><stop offset="1" stop-color="#8a5a2a"/></radialGradient></defs>
<ellipse cx="80" cy="57" rx="30" ry="3.5" fill="rgba(0,0,0,.30)"/><path d="M 80 14 C 90 14 95 24 93 34 C 91 46 86 50 80 50 C 74 50 69 46 67 34 C 65 24 70 14 80 14 Z" fill="url(#w623)" stroke="#5c3c1c" stroke-width="1"/><circle cx="80" cy="31" r="6.5" fill="#20130a"/><circle cx="80" cy="31" r="7.8" fill="none" stroke="#6b4620" stroke-width="1.4"/><rect x="72" y="43" width="16" height="3.4" rx="1.4" fill="#241408"/><rect x="76" y="4" width="8" height="10" fill="#3a2410"/><line x1="77" y1="6" x2="77" y2="43" stroke="rgba(255,240,210,.5)" stroke-width=".35"/><line x1="79" y1="6" x2="79" y2="43" stroke="rgba(255,240,210,.5)" stroke-width=".35"/><line x1="81" y1="6" x2="81" y2="43" stroke="rgba(255,240,210,.5)" stroke-width=".35"/><line x1="83" y1="6" x2="83" y2="43" stroke="rgba(255,240,210,.5)" stroke-width=".35"/><text x="114" y="34" font-family="JetBrains Mono, ui-monospace, Menlo, monospace" font-size="4.6" font-weight="700" letter-spacing="0.5" text-anchor="start" fill="#c8c4bc" opacity="0.8">MANDOLIN</text>
</svg>
