<svg xmlns="http://www.w3.org/2000/svg" viewBox="0 0 160 64" role="img">
<defs><linearGradient id="b260" x1="0" y1="0" x2="0" y2="1">
<stop offset="0" stop-color="#3c3c3e"/><stop offset="1" stop-color="#161617"/></linearGradient><radialGradient id="k261" cx=".35" cy=".3" r=".9">
<stop offset="0" stop-color="#504e4b"/><stop offset="1" stop-color="#0c0a08"/></radialGradient><radialGradient id="k262" cx=".35" cy=".3" r=".9">
<stop offset="0" stop-color="#504e4b"/><stop offset="1" stop-color="#0c0a08"/></radialGradient></defs>
<ellipse cx="80" cy="60" rx="26.04" ry="4" fill="rgba(0,0,0,.30)"/><rect x="59" y="5" width="42" height="56" rx="2.5" fill="url(#b260)" stroke="rgba(0,0,0,.5)" stroke-width=".8"/><rect x="60" y="6" width="40" height="54" rx="2" fill="none" stroke="rgba(255,255,255,.18)" stroke-width=".8"/><circle cx="73" cy="14" r="5.6" fill="url(#k261)" stroke="rgba(0,0,0,.5)" stroke-width=".6"/><line x1="73" y1="14" x2="73" y2="9.4" stroke="#f2ede2" stroke-width="1.1" stroke-linecap="round" transform="rotate(24 73 14)"/><circle cx="87" cy="14" r="5.6" fill="url(#k262)" stroke="rgba(0,0,0,.5)" stroke-width=".6"/><line x1="87" y1="14" x2="87" y2="9.4" stroke="#f2ede2" stroke-width="1.1" stroke-linecap="round" transform="rotate(24 87 14)"/><circle cx="80" cy="22.5" r="1.8" fill="#ff4040"/><circle cx="80" cy="22.5" r="3.1" fill="#ff4040" opacity=".25"/><text x="80" y="36" font-family="JetBrains Mono, ui-monospace, Menlo, monospace" font-size="5.4" font-weight="700" letter-spacing="0.4" text-anchor="middle" fill="#e8e8e8">TREMULATE</text><circle cx="80" cy="52" r="4.6" fill="#c9c9c9" stroke="#333" stroke-width=".8"/><circle cx="80" cy="52" r="2.8" fill="#8f8f8f"/><rect x="55.6" y="29" width="3.4" height="6" rx="1" fill="#9a9a9a" stroke="#333" stroke-width=".5"/><rect x="101" y="29" width="3.4" height="6" rx="1" fill="#9a9a9a" stroke="#333" stroke-width=".5"/>
</svg>
