<svg xmlns="http://www.w3.org/2000/svg" viewBox="0 0 160 64" role="img">
<defs><linearGradient id="t296" x1="0" y1="0" x2="0" y2="1">
<stop offset="0" stop-color="#333335"/><stop offset="1" stop-color="#171719"/></linearGradient><linearGradient id="p297" x1="0" y1="0" x2="0" y2="1">
<stop offset="0" stop-color="#c1c4c8"/><stop offset="1" stop-color="#9ca0a3"/></linearGradient><pattern id="g298" width="5" height="5" patternUnits="userSpaceOnUse">
<rect width="5" height="5" fill="#a8a49a"/><circle cx="1.2" cy="1.2" r=".7" fill="#c8c4ba"/><circle cx="3.6" cy="3.6" r=".7" fill="#8a867c"/></pattern></defs>
<ellipse cx="80" cy="59" rx="81.4" ry="4" fill="rgba(0,0,0,.30)"/><rect x="6" y="7" width="148" height="52" rx="4" fill="url(#t296)" stroke="rgba(0,0,0,.55)" stroke-width="1"/><rect x="64" y="4.6" width="32" height="3.6" rx="1.8" fill="#191919" stroke="rgba(0,0,0,.6)" stroke-width=".5"/><rect x="10" y="11" width="140" height="19" rx="2" fill="url(#p297)" stroke="rgba(0,0,0,.4)" stroke-width=".6"/><rect x="11" y="33" width="138" height="22" rx="2" fill="url(#g298)" stroke="rgba(0,0,0,.45)" stroke-width=".6"/><rect x="11" y="33" width="138" height="22" rx="2" fill="none" stroke="#8a90a8" stroke-width="1"/><circle cx="48.512" cy="20.5" r="3.1" fill="#16130f" stroke="rgba(255,255,255,.25)" stroke-width=".5"/>
<path d="M 48.512 20.5 L 47.21 16.532 L 49.814 16.532 Z" fill="#16130f" transform="rotate(30 48.512 20.5)"/><circle cx="64.09333333333333" cy="20.5" r="3.1" fill="#16130f" stroke="rgba(255,255,255,.25)" stroke-width=".5"/>
<path d="M 64.09333333333333 20.5 L 62.791333333333334 16.532 L 65.39533333333334 16.532 Z" fill="#16130f" transform="rotate(30 64.09333333333333 20.5)"/><circle cx="79.67466666666667" cy="20.5" r="3.1" fill="#16130f" stroke="rgba(255,255,255,.25)" stroke-width=".5"/>
<path d="M 79.67466666666667 20.5 L 78.37266666666666 16.532 L 80.97666666666667 16.532 Z" fill="#16130f" transform="rotate(30 79.67466666666667 20.5)"/><circle cx="95.256" cy="20.5" r="3.1" fill="#16130f" stroke="rgba(255,255,255,.25)" stroke-width=".5"/>
<path d="M 95.256 20.5 L 93.954 16.532 L 96.558 16.532 Z" fill="#16130f" transform="rotate(30 95.256 20.5)"/><circle cx="110.83733333333333" cy="20.5" r="3.1" fill="#16130f" stroke="rgba(255,255,255,.25)" stroke-width=".5"/>
<path d="M 110.83733333333333 20.5 L 109.53533333333333 16.532 L 112.13933333333334 16.532 Z" fill="#16130f" transform="rotate(30 110.83733333333333 20.5)"/><circle cx="126.41866666666667" cy="20.5" r="3.1" fill="#16130f" stroke="rgba(255,255,255,.25)" stroke-width=".5"/>
<path d="M 126.41866666666667 20.5 L 125.11666666666666 16.532 L 127.72066666666667 16.532 Z" fill="#16130f" transform="rotate(30 126.41866666666667 20.5)"/><circle cx="142" cy="20.5" r="3.1" fill="#16130f" stroke="rgba(255,255,255,.25)" stroke-width=".5"/>
<path d="M 142 20.5 L 140.698 16.532 L 143.302 16.532 Z" fill="#16130f" transform="rotate(30 142 20.5)"/><text x="15" y="22.7" font-family="JetBrains Mono, ui-monospace, Menlo, monospace" font-size="6.2" font-weight="700" letter-spacing="0.3" text-anchor="start" fill="#2a4a8a">SF TWIN</text><circle cx="147" cy="15" r="1.6" fill="#ff5a4d"/><circle cx="147" cy="15" r="2.8" fill="#ff5a4d" opacity=".3"/><circle cx="8" cy="9" r="1.3" fill="#888" stroke="#222" stroke-width=".4"/><circle cx="152" cy="9" r="1.3" fill="#888" stroke="#222" stroke-width=".4"/><circle cx="8" cy="57" r="1.3" fill="#888" stroke="#222" stroke-width=".4"/><circle cx="152" cy="57" r="1.3" fill="#888" stroke="#222" stroke-width=".4"/>
</svg>
