<svg xmlns="http://www.w3.org/2000/svg" viewBox="0 0 160 64" role="img">
<defs><linearGradient id="t398" x1="0" y1="0" x2="0" y2="1">
<stop offset="0" stop-color="#963838"/><stop offset="1" stop-color="#711c1c"/></linearGradient><linearGradient id="p399" x1="0" y1="0" x2="0" y2="1">
<stop offset="0" stop-color="#373739"/><stop offset="1" stop-color="#18181a"/></linearGradient><pattern id="g400" width="5" height="5" patternUnits="userSpaceOnUse" patternTransform="rotate(45)">
<rect width="5" height="5" fill="#cfc0a0"/><rect width="5" height="2.4" fill="#bfae8c"/></pattern></defs>
<ellipse cx="80" cy="59" rx="81.4" ry="4" fill="rgba(0,0,0,.30)"/><rect x="6" y="7" width="148" height="52" rx="4" fill="url(#t398)" stroke="rgba(0,0,0,.55)" stroke-width="1"/><rect x="64" y="4.6" width="32" height="3.6" rx="1.8" fill="#191919" stroke="rgba(0,0,0,.6)" stroke-width=".5"/><rect x="10" y="11" width="140" height="19" rx="2" fill="url(#p399)" stroke="rgba(0,0,0,.4)" stroke-width=".6"/><rect x="11" y="33" width="138" height="22" rx="2" fill="url(#g400)" stroke="rgba(0,0,0,.45)" stroke-width=".6"/><circle cx="49.6" cy="20.5" r="3.1" fill="#d8d2c0" stroke="rgba(255,255,255,.25)" stroke-width=".5"/>
<path d="M 49.6 20.5 L 48.298 16.532 L 50.902 16.532 Z" fill="#d8d2c0" transform="rotate(30 49.6 20.5)"/><circle cx="65" cy="20.5" r="3.1" fill="#d8d2c0" stroke="rgba(255,255,255,.25)" stroke-width=".5"/>
<path d="M 65 20.5 L 63.698 16.532 L 66.302 16.532 Z" fill="#d8d2c0" transform="rotate(30 65 20.5)"/><circle cx="80.4" cy="20.5" r="3.1" fill="#d8d2c0" stroke="rgba(255,255,255,.25)" stroke-width=".5"/>
<path d="M 80.4 20.5 L 79.098 16.532 L 81.70200000000001 16.532 Z" fill="#d8d2c0" transform="rotate(30 80.4 20.5)"/><circle cx="95.80000000000001" cy="20.5" r="3.1" fill="#d8d2c0" stroke="rgba(255,255,255,.25)" stroke-width=".5"/>
<path d="M 95.80000000000001 20.5 L 94.498 16.532 L 97.10200000000002 16.532 Z" fill="#d8d2c0" transform="rotate(30 95.80000000000001 20.5)"/><circle cx="111.2" cy="20.5" r="3.1" fill="#d8d2c0" stroke="rgba(255,255,255,.25)" stroke-width=".5"/>
<path d="M 111.2 20.5 L 109.898 16.532 L 112.50200000000001 16.532 Z" fill="#d8d2c0" transform="rotate(30 111.2 20.5)"/><circle cx="126.6" cy="20.5" r="3.1" fill="#d8d2c0" stroke="rgba(255,255,255,.25)" stroke-width=".5"/>
<path d="M 126.6 20.5 L 125.29799999999999 16.532 L 127.902 16.532 Z" fill="#d8d2c0" transform="rotate(30 126.6 20.5)"/><circle cx="142" cy="20.5" r="3.1" fill="#d8d2c0" stroke="rgba(255,255,255,.25)" stroke-width=".5"/>
<path d="M 142 20.5 L 140.698 16.532 L 143.302 16.532 Z" fill="#d8d2c0" transform="rotate(30 142 20.5)"/><text x="15" y="22.7" font-family="JetBrains Mono, ui-monospace, Menlo, monospace" font-size="5" font-weight="700" letter-spacing="0.3" text-anchor="start" fill="#e8e8e8">MAZ 38 OD</text><circle cx="147" cy="15" r="1.6" fill="#ff5a4d"/><circle cx="147" cy="15" r="2.8" fill="#ff5a4d" opacity=".3"/><circle cx="8" cy="9" r="1.3" fill="#888" stroke="#222" stroke-width=".4"/><circle cx="152" cy="9" r="1.3" fill="#888" stroke="#222" stroke-width=".4"/><circle cx="8" cy="57" r="1.3" fill="#888" stroke="#222" stroke-width=".4"/><circle cx="152" cy="57" r="1.3" fill="#888" stroke="#222" stroke-width=".4"/>
</svg>
